<svg width="24" height="24" viewBox="0 0 24 24" fill="none" xmlns="http://www.w3.org/2000/svg">
<rect x="0.428571" y="0.428571" width="23.1429" height="23.1429" rx="1.71429" stroke="white" stroke-width="0.857143"/>
<g clip-path="url(#clip0_999_7262)">
<path d="M19.5204 6.41571L17.8986 5.47559L14.4342 7.4838V7.54456L11.9883 6.12671L9.54237 7.54456V7.4838L6.07793 5.47559L4.45618 6.41571V11.6272V14.1581L11.9883 18.5243L19.5204 14.1581V11.6272V6.41571ZM15.4188 8.0539L17.8992 6.61629L18.5368 6.98582V9.91538L15.4193 8.10825V8.05439L15.4188 8.0539ZM5.44074 6.98582L6.07842 6.61629L8.55878 8.0539V8.10775L5.44124 9.91489V6.98532L5.44074 6.98582ZM13.9594 16.2404L11.9888 17.3826L10.0182 16.2404V14.3572L11.9888 13.2149L13.9594 14.3572V16.2404ZM18.5363 13.5874L16.5588 14.7341V12.4245L11.9888 9.77557L7.41873 12.4245V14.7341L5.44074 13.5874V11.0635L11.9888 7.2679L18.5368 11.0635V13.5874H18.5363Z" fill="black"/>
</g>
<defs>
<clipPath id="clip0_999_7262">
<rect width="15.0875" height="13.0487" fill="white" transform="translate(4.45618 5.47559)"/>
</clipPath>
</defs>
</svg>
